<?xml version="1.0" encoding="UTF-8" standalone="no"?>
<!-- Created with Inkscape (http://www.inkscape.org/) -->

<svg
   xmlns:dc="http://purl.org/dc/elements/1.1/"
   xmlns:cc="http://creativecommons.org/ns#"
   xmlns:rdf="http://www.w3.org/1999/02/22-rdf-syntax-ns#"
   xmlns:svg="http://www.w3.org/2000/svg"
   xmlns="http://www.w3.org/2000/svg"
   xmlns:xlink="http://www.w3.org/1999/xlink"
   xmlns:sodipodi="http://sodipodi.sourceforge.net/DTD/sodipodi-0.dtd"
   xmlns:inkscape="http://www.inkscape.org/namespaces/inkscape"
   width="16"
   height="16"
   viewBox="0 0 4.2333332 4.2333335"
   version="1.1"
   id="svg8"
   inkscape:version="0.92.4 (5da689c313, 2019-01-14)"
   sodipodi:docname="builtin.svg">
  <defs
     id="defs2" />
  <sodipodi:namedview
     id="base"
     pagecolor="#ffffff"
     bordercolor="#666666"
     borderopacity="1.0"
     inkscape:pageopacity="0.0"
     inkscape:pageshadow="2"
     inkscape:zoom="8"
     inkscape:cx="0.54719162"
     inkscape:cy="1.7011048"
     inkscape:document-units="mm"
     inkscape:current-layer="layer1"
     showgrid="true"
     units="px"
     inkscape:window-width="1680"
     inkscape:window-height="987"
     inkscape:window-x="-8"
     inkscape:window-y="-8"
     inkscape:window-maximized="1">
    <inkscape:grid
       type="xygrid"
       id="grid868"
       empspacing="2"
       spacingx="0.13229167"
       spacingy="0.13229167" />
  </sodipodi:namedview>
  <metadata
     id="metadata5">
    <rdf:RDF>
      <cc:Work
         rdf:about="">
        <dc:format>image/svg+xml</dc:format>
        <dc:type
           rdf:resource="http://purl.org/dc/dcmitype/StillImage" />
        <dc:title></dc:title>
      </cc:Work>
    </rdf:RDF>
  </metadata>
  <g
     inkscape:label="Layer 1"
     inkscape:groupmode="layer"
     id="layer1"
     transform="translate(0,-292.76665)">
    <g
       id="g884"
       transform="matrix(0.7782293,0,0,0.7782293,-5.7451685,65.049243)">
      <path
         inkscape:connector-curvature="0"
         style="fill:#e6e6e6;stroke:none;stroke-width:0.15098043px;stroke-linecap:butt;stroke-linejoin:miter;stroke-opacity:1"
         d="m 0.29608794,292.98545 c -4.5543e-4,4.6e-4 -0.001375,1.6e-4 -0.001829,5.7e-4 -0.0727391,0.0727 -0.10332887,0.17747 -0.11762648,0.28491 l -0.0167603,1.40358 c 0.00456,0.12627 0.0512348,0.24229 0.13438675,0.32544 0.00661,0.007 0.0189163,0.005 0.0259023,0.0107 L 1.262697,293.9691 Z"
         id="path4688" />
      <path
         inkscape:connector-curvature="0"
         style="fill:#f2f2f2;stroke:none;stroke-width:0.15098043px;stroke-linecap:butt;stroke-linejoin:miter;stroke-opacity:1"
         d="m 0.62976941,292.84741 c -0.13087032,0.002 -0.24984374,0.053 -0.3355099,0.13866 -0.0138617,0.0139 -0.0104618,0.0388 -0.0225501,0.0543 l 0.99098829,0.92881 0.9787988,-0.99615 c -0.071969,-0.0625 -0.1633739,-0.0979 -0.2635931,-0.10881 z"
         id="path4690" />
      <path
         inkscape:connector-curvature="0"
         id="path4692"
         d="m 2.287511,294.96465 c 0.07162,-0.084 0.126159,-0.18578 0.126159,-0.30534 v -1.33226 c 0,-0.1334 -0.053732,-0.25394 -0.1407861,-0.34098 -0.01736,-0.0173 -0.048104,-0.0135 -0.067955,-0.0281 l -0.942231,1.00255 z"
         style="fill:#cccccc;stroke:none;stroke-width:0.15098043px;stroke-linecap:butt;stroke-linejoin:miter;stroke-opacity:1" />
      <path
         inkscape:connector-curvature="0"
         style="fill:#999999;stroke:none;stroke-width:0.15098043px;stroke-linecap:butt;stroke-linejoin:miter;stroke-opacity:1"
         d="m 0.29243123,294.99542 c 0.00115,10e-4 6.6593e-4,0.003 0.001828,0.005 0.0728996,0.0729 0.17780694,0.10375 0.28553378,0.11793 l 1.36519909,0.0177 c 0.1274495,-0.004 0.2440975,-0.0518 0.3278915,-0.1356 0.00855,-0.009 0.00583,-0.0244 0.013713,-0.0335 l -1.0238992,-0.99737 z"
         id="path4694" />
      <path
         inkscape:connector-curvature="0"
         style="fill:none;stroke:#666666;stroke-width:0.09058826;stroke-miterlimit:4;stroke-dasharray:none"
         d="m 0.6351655,292.84528 h 1.2969799 c 0.2668231,0 0.4816301,0.2148 0.4816301,0.48162 v 1.33227 c 0,0.26682 -0.214807,0.48162 -0.4816301,0.48162 H 0.6351655 c -0.26682308,0 -0.4816301,-0.2148 -0.4816301,-0.48162 v -1.33227 c 0,-0.26682 0.21480702,-0.48162 0.4816301,-0.48162 z"
         id="path4696" />
      <rect
         style="fill:#f2f2f2;stroke:none;stroke-width:0.10568628;stroke-miterlimit:4;stroke-dasharray:none"
         id="rect4698"
         width="1.6507761"
         height="1.6019875"
         x="0.45358983"
         y="293.14166"
         ry="0.33611178" />
      <text
         id="text4718"
         y="294.57654"
         x="0.89856791"
         style="font-style:normal;font-weight:normal;font-size:8.53557301px;line-height:1.25;font-family:sans-serif;letter-spacing:0px;word-spacing:0px;fill:#4d4d4d;fill-opacity:1;stroke:none;stroke-width:0.15098041"
         xml:space="preserve"><tspan
           style="font-weight:bold;font-size:1.70711446px;fill:#4d4d4d;stroke-width:0.15098041"
           y="294.57654"
           x="0.89856791"
           id="tspan4716"
           sodipodi:role="line">!</tspan></text>
      <path
         id="path4720"
         d="m 0.29608794,292.98545 c -4.5543e-4,4.6e-4 -0.001375,1.6e-4 -0.001829,5.7e-4 -0.0727391,0.0727 -0.10332887,0.17747 -0.11762648,0.28491 l -0.0167603,1.40358 c 0.00456,0.12627 0.0512348,0.24229 0.13438675,0.32544 0.00661,0.007 0.0189163,0.005 0.0259023,0.0107 L 1.262697,293.9691 Z"
         style="fill:#e6e6e6;stroke:none;stroke-width:0.15098043px;stroke-linecap:butt;stroke-linejoin:miter;stroke-opacity:1"
         inkscape:connector-curvature="0" />
      <path
         id="path4722"
         d="m 0.62976941,292.84741 c -0.13087032,0.002 -0.24984374,0.053 -0.3355099,0.13866 -0.0138617,0.0139 -0.0104618,0.0388 -0.0225501,0.0543 l 0.99098829,0.92881 0.9787988,-0.99615 c -0.071969,-0.0625 -0.1633739,-0.0979 -0.2635931,-0.10881 z"
         style="fill:#f2f2f2;stroke:none;stroke-width:0.15098043px;stroke-linecap:butt;stroke-linejoin:miter;stroke-opacity:1"
         inkscape:connector-curvature="0" />
      <path
         style="fill:#cccccc;stroke:none;stroke-width:0.15098043px;stroke-linecap:butt;stroke-linejoin:miter;stroke-opacity:1"
         d="m 2.287511,294.96465 c 0.07162,-0.084 0.126159,-0.18578 0.126159,-0.30534 v -1.33226 c 0,-0.1334 -0.053732,-0.25394 -0.1407861,-0.34098 -0.01736,-0.0173 -0.048104,-0.0135 -0.067955,-0.0281 l -0.942231,1.00255 z"
         id="path4724"
         inkscape:connector-curvature="0" />
      <path
         id="path4726"
         d="m 0.29243123,294.99542 c 0.00115,10e-4 6.6593e-4,0.003 0.001828,0.005 0.0728996,0.0729 0.17780694,0.10375 0.28553378,0.11793 l 1.36519909,0.0177 c 0.1274495,-0.004 0.2440975,-0.0518 0.3278915,-0.1356 0.00855,-0.009 0.00583,-0.0244 0.013713,-0.0335 l -1.0238992,-0.99737 z"
         style="fill:#999999;stroke:none;stroke-width:0.15098043px;stroke-linecap:butt;stroke-linejoin:miter;stroke-opacity:1"
         inkscape:connector-curvature="0" />
      <path
         id="path4728"
         d="m 0.6351655,292.84528 h 1.2969799 c 0.2668231,0 0.4816301,0.2148 0.4816301,0.48162 v 1.33227 c 0,0.26682 -0.214807,0.48162 -0.4816301,0.48162 H 0.6351655 c -0.26682308,0 -0.4816301,-0.2148 -0.4816301,-0.48162 v -1.33227 c 0,-0.26682 0.21480702,-0.48162 0.4816301,-0.48162 z"
         style="fill:none;stroke:#666666;stroke-width:0.09058826;stroke-miterlimit:4;stroke-dasharray:none"
         inkscape:connector-curvature="0" />
      <rect
         ry="0.33611178"
         y="293.14166"
         x="0.45358983"
         height="1.6019875"
         width="1.6507761"
         id="rect4730"
         style="fill:#f2f2f2;stroke:none;stroke-width:0.10568628;stroke-miterlimit:4;stroke-dasharray:none" />
    </g>
    <use
       x="0"
       y="0"
       xlink:href="#g884"
       id="use886"
       transform="translate(3.6987561e-7,2.1166665)"
       width="100%"
       height="100%" />
    <use
       x="0"
       y="0"
       xlink:href="#use886"
       id="use888"
       transform="translate(2.1166663,-2.1096159)"
       width="100%"
       height="100%" />
    <path
       id="path4728-2"
       d="m -5.2503265,292.95276 h 1.009348 c 0.20765,0 0.374819,0.16716 0.374819,0.37481 v 1.03681 c 0,0.20765 -0.167169,0.37481 -0.374819,0.37481 h -1.009348 c -0.207649,0 -0.374818,-0.16716 -0.374818,-0.37481 v -1.03681 c 0,-0.20765 0.167169,-0.37481 0.374818,-0.37481 z"
       style="opacity:0.47000002;fill:#ff0000;stroke:#666666;stroke-width:0.07049844;stroke-miterlimit:4;stroke-dasharray:none"
       inkscape:connector-curvature="0" />
    <path
       inkscape:connector-curvature="0"
       style="opacity:0.47000002;fill:#00ff00;stroke:#666666;stroke-width:0.07049844;stroke-miterlimit:4;stroke-dasharray:none"
       d="m -3.1336595,292.96103 h 1.0093478 c 0.2076496,0 0.3748187,0.16716 0.3748187,0.37481 v 1.03681 c 0,0.20765 -0.1671691,0.37481 -0.3748187,0.37481 h -1.0093478 c -0.207649,0 -0.374819,-0.16716 -0.374819,-0.37481 v -1.03681 c 0,-0.20765 0.16717,-0.37481 0.374819,-0.37481 z"
       id="path905" />
    <path
       id="path907"
       d="m -5.2503265,295.06116 h 1.009348 c 0.20765,0 0.374819,0.16716 0.374819,0.37481 v 1.03681 c 0,0.20765 -0.167169,0.37481 -0.374819,0.37481 h -1.009348 c -0.207649,0 -0.374818,-0.16716 -0.374818,-0.37481 v -1.03681 c 0,-0.20765 0.167169,-0.37481 0.374818,-0.37481 z"
       style="opacity:0.47000002;fill:#ffff00;stroke:#666666;stroke-width:0.07049844;stroke-miterlimit:4;stroke-dasharray:none"
       inkscape:connector-curvature="0" />
    <rect
       style="opacity:1;fill:#67b1e6;fill-opacity:1;stroke:none;stroke-width:0.15875;stroke-miterlimit:4;stroke-dasharray:none"
       id="rect909"
       width="1.8520833"
       height="1.0583333"
       x="-1.3229166"
       y="287.73956" />
    <rect
       y="289.32709"
       x="-1.8520833"
       height="1.0583333"
       width="1.8520833"
       id="rect922"
       style="opacity:1;fill:#e69963;fill-opacity:1;stroke:none;stroke-width:0.15875;stroke-miterlimit:4;stroke-dasharray:none" />
    <rect
       style="opacity:1;fill:#67b1e6;fill-opacity:1;stroke:#000000;stroke-width:0.26458332;stroke-linecap:butt;stroke-linejoin:round;stroke-miterlimit:4;stroke-dasharray:none"
       id="rect924"
       width="1.5875"
       height="1.5875"
       x="1.0583334"
       y="290.64999" />
    <path
       style="fill:none;stroke:#000000;stroke-width:0.26458332;stroke-linecap:butt;stroke-linejoin:round;stroke-miterlimit:4;stroke-dasharray:none;stroke-opacity:1"
       d="M 1.0583334,290.65003 1.5875,290.12086 H 3.175 l -0.5291667,0.52917"
       id="path928"
       inkscape:connector-curvature="0" />
    <path
       style="fill:none;stroke:#000000;stroke-width:0.26458332;stroke-linecap:butt;stroke-linejoin:round;stroke-miterlimit:4;stroke-dasharray:none;stroke-opacity:1"
       d="m 2.6458334,292.23754 0.5291667,-0.52917 v -1.5875 0"
       id="path930"
       inkscape:connector-curvature="0" />
    <path
       style="fill:#e69963;fill-opacity:1;stroke:none;stroke-width:0.26458332px;stroke-linecap:butt;stroke-linejoin:miter;stroke-opacity:1"
       d="M 5.2916669,299.64582 H 6.6145835 V 298.3229 H 5.2916669 Z"
       id="path932"
       inkscape:connector-curvature="0" />
    <path
       style="fill:#4d4d4d;fill-opacity:1;stroke:none;stroke-width:0.32404625px;stroke-linecap:butt;stroke-linejoin:miter;stroke-opacity:1"
       d="m 0.26458342,294.08959 v 1.58748 l 1.32291678,-0.79375 z"
       id="path938"
       inkscape:connector-curvature="0" />
    <path
       style="fill:none;stroke:#008000;stroke-width:0.35277721px;stroke-linecap:butt;stroke-linejoin:miter;stroke-opacity:1"
       d="m 2.2489584,296.07394 0.5291667,0.52916 1.0583335,-1.23472"
       id="path940"
       inkscape:connector-curvature="0"
       sodipodi:nodetypes="ccc" />
    <circle
       r="0.78715849"
       cy="293.94815"
       cx="8.1953917"
       id="circle942"
       style="opacity:1;fill:#e69963;fill-opacity:1;stroke:none;stroke-width:0.18891804;stroke-miterlimit:4;stroke-dasharray:none" />
    <g
       id="g963"
       transform="translate(-3.175,-2.2489534)">
      <path
         style="fill:#67b1e6;fill-opacity:1;stroke:none;stroke-width:0.26458332px;stroke-linecap:butt;stroke-linejoin:miter;stroke-opacity:1"
         d="m 5.2916668,296.86769 h 1.3229166 v -1.32292 H 5.2916668 Z"
         id="path944"
         inkscape:connector-curvature="0" />
      <path
         style="fill:#72c4ff;fill-opacity:1;stroke:none;stroke-width:0.26458332px;stroke-linecap:butt;stroke-linejoin:miter;stroke-opacity:1"
         d="m 5.2916668,295.54477 0.5291667,-0.52916 h 1.3229166 l -0.5291667,0.52916 z"
         id="path946"
         inkscape:connector-curvature="0" />
      <path
         style="fill:#487da2;fill-opacity:1;stroke:none;stroke-width:0.26458332px;stroke-linecap:butt;stroke-linejoin:miter;stroke-opacity:1"
         d="m 6.6145834,296.86769 0.5291667,-0.52917 v -1.32291 l -0.5291667,0.52916 z"
         id="path948"
         inkscape:connector-curvature="0" />
    </g>
    <path
       inkscape:connector-curvature="0"
       id="path950"
       d="m 5.5562501,293.03125 v 1.85206 l 1.3229167,-0.92604 z"
       style="fill:#4d4d4d;fill-opacity:1;stroke:none;stroke-width:0.35000977px;stroke-linecap:butt;stroke-linejoin:miter;stroke-opacity:1" />
    <path
       sodipodi:nodetypes="ccc"
       inkscape:connector-curvature="0"
       id="path952"
       d="m 7.6729167,295.94165 0.396875,0.39687 0.7937501,-0.92604"
       style="fill:none;stroke:#008000;stroke-width:0.26458332px;stroke-linecap:butt;stroke-linejoin:miter;stroke-opacity:1" />
    <g
       id="g958"
       transform="translate(6.2856885,5.2682734)">
      <circle
         r="0.78715849"
         cy="293.81586"
         cx="3.1683078"
         id="path926"
         style="opacity:1;fill:#67b1e6;fill-opacity:1;stroke:none;stroke-width:0.18891804;stroke-miterlimit:4;stroke-dasharray:none" />
      <path
         sodipodi:nodetypes="ccc"
         inkscape:connector-curvature="0"
         id="path954"
         d="m 2.4455617,294.11296 c 0.6644972,-0.0784 1.2621159,-0.24851 1.1496994,-0.94944 -0.7181222,-0.48642 -1.4785944,0.39688 -1.1496994,0.94944 z"
         style="fill:#72c4ff;fill-opacity:1;stroke:none;stroke-width:0.26458332px;stroke-linecap:butt;stroke-linejoin:miter;stroke-opacity:1" />
    </g>
  </g>
</svg>
